<svg width="60" height="61" viewBox="0 0 60 61" fill="none" xmlns="http://www.w3.org/2000/svg">
<g clip-path="url(#clip0_4_68)">
<path d="M37.7988 36.3648C36.4752 36.3648 35.3988 35.2884 35.3988 33.9648C35.3988 32.6412 36.4752 31.5648 37.7988 31.5648C38.4612 31.5648 38.9988 31.0278 38.9988 30.3654L39 20.7648C39 20.7552 38.9976 20.7468 38.997 20.7372C38.9874 17.8422 37.4562 15.5334 34.8 14.079V6.96483H34.7988C34.7988 3.36483 31.4454 0.969635 26.9988 0.969635C22.5522 0.969635 19.1988 3.36483 19.1988 6.96483H19.2V14.0778C16.5336 15.537 14.9988 17.856 14.9988 20.7648H15L14.9988 30.3642C14.9988 30.6822 15.1248 30.9882 15.3498 31.2132C15.5748 31.4382 15.8802 31.5648 16.1988 31.5648C17.5224 31.5648 18.5988 32.6412 18.5988 33.9648C18.5988 35.2884 17.5224 36.3648 16.1988 36.3648C15.8802 36.3648 15.5748 36.4914 15.3498 36.7164C15.1248 36.9414 14.9982 37.2474 14.9988 37.5654L15 54.3648C15 56.3502 16.6146 57.9648 18.5988 57.9648H35.3988C37.3848 57.9648 39 56.3502 39 54.3648L38.9988 37.5642C38.9988 36.9018 38.4612 36.3648 37.7988 36.3648ZM20.3988 6.96483C20.3988 3.96483 23.2362 2.16963 26.9988 2.16963C30.7614 2.16963 33.5988 3.96483 33.5988 6.96483H33.6V13.5186C33.036 13.2894 32.4384 13.0884 31.8 12.9264V8.76483H28.8V6.36483H28.7988C28.7988 5.37063 27.993 4.56483 26.9988 4.56483C26.0046 4.56483 25.1988 5.37063 25.1988 6.36483C25.1988 6.36903 25.2 6.37263 25.2 6.37683V8.76483H22.2V12.9258C21.5616 13.0884 20.964 13.2888 20.4 13.518V6.96483H20.3988ZM26.9988 14.7648C31.4214 14.7648 36.1224 16.2024 36.5562 20.1648H17.4414C17.8752 16.2024 22.5762 14.7648 26.9988 14.7648ZM35.3988 55.5648H18.5988C17.9376 55.5648 17.4 55.0266 17.4 54.3648V38.613C19.2 38.0784 20.9994 36.1974 20.9994 33.9648C20.9994 31.7322 19.2 29.8512 17.4 29.3166V21.3648H36.6V29.3166C34.8 29.8506 32.9994 31.7322 32.9994 33.9648C32.9994 36.1974 34.8 38.079 36.6 38.613V54.3648C36.6 55.0266 36.0612 55.5648 35.3988 55.5648Z" fill="black"/>
<path d="M31.2 31.5648H22.8V32.7648H31.2V31.5648Z" fill="black"/>
<path d="M31.2 35.1648H22.8V36.3648H31.2V35.1648Z" fill="black"/>
</g>
<defs>
<clipPath id="clip0_4_68">
<rect width="60" height="60" fill="white" transform="translate(0 0.364838)"/>
</clipPath>
</defs>
</svg>
