<svg width="56" height="52" viewBox="0 0 56 52" fill="none" xmlns="http://www.w3.org/2000/svg">
<g clip-path="url(#clip0_3_15)">
<path d="M41.1903 13.7883L41.1237 13.5689C40.1392 10.3416 37.7454 7.59087 34.4674 5.92014C31.1894 4.24941 27.2949 3.79506 23.6381 4.65676L13.7886 6.98889C10.1342 7.85833 7.0194 9.97231 5.12754 12.8671C3.23568 15.762 2.7212 19.2013 3.69694 22.4306L7.32416 34.3779C8.18691 37.2392 10.032 39.7942 12.6058 41.6919L14.1035 42.8002L14.5032 44.1168C15.0647 45.9614 16.4325 47.5335 18.306 48.4878C20.1796 49.442 22.4055 49.7002 24.4946 49.2055L42.219 45.0088C44.3089 44.514 46.0906 43.3062 47.1721 41.6513C48.2537 39.9963 48.5465 38.0297 47.9862 36.1841L47.6478 35.0694L48.4011 33.9832C49.5506 32.3153 50.3059 30.4592 50.6215 28.5266C50.9371 26.5941 50.8065 24.6251 50.2375 22.7384L49.1418 19.1295C48.6715 17.5877 47.6355 16.2271 46.1961 15.2608C44.7567 14.2944 42.995 13.7769 41.187 13.7891L41.1903 13.7883ZM41.1657 41.5278L23.438 45.7254C22.9207 45.8478 22.3811 45.8791 21.8501 45.8175C21.3191 45.7558 20.8071 45.6024 20.3432 45.366C19.4065 44.8885 18.7228 44.102 18.4427 43.1794L44.0504 37.116C44.1891 37.573 44.2245 38.0496 44.1546 38.5187C44.0847 38.9877 43.9109 39.44 43.643 39.8497C43.3751 40.2594 43.0185 40.6185 42.5934 40.9064C42.1683 41.1943 41.6832 41.4055 41.1657 41.5278ZM46.3016 23.6703C46.7277 25.0855 46.8252 26.5622 46.5881 28.0115C46.351 29.4608 45.7843 30.8528 44.9221 32.1036L44.0307 33.3903L16.5363 39.9004L15.2243 38.93C13.293 37.5051 11.9087 35.587 11.2615 33.4393L9.46501 27.522C10.8478 27.8517 12.3047 27.8525 13.6879 27.5241L27.4766 24.2593C27.9989 24.1356 28.4443 23.8337 28.7146 23.4201C28.9849 23.0064 29.0581 22.5149 28.9181 22.0536C28.778 21.5923 28.4362 21.199 27.9678 20.9603C27.4994 20.7215 26.9428 20.6569 26.4204 20.7806L12.6335 24.045C12.1159 24.1678 11.5761 24.1992 11.0448 24.1376C10.5135 24.076 10.0012 23.9226 9.53707 23.686C9.07297 23.4495 8.6662 23.1345 8.34001 22.7591C8.01383 22.3836 7.77463 21.9551 7.63608 21.4979C6.93901 19.1911 7.30649 16.7343 8.65789 14.6665C10.0093 12.5987 12.2343 11.0886 14.8448 10.4676L24.6942 8.13546C27.3064 7.51988 30.0883 7.8444 32.4299 9.03784C34.7714 10.2313 36.4813 12.1962 37.1845 14.5016L37.2512 14.721C35.6787 15.5092 34.4466 16.7356 33.7476 18.2083C33.0487 19.6809 32.9224 21.3167 33.3886 22.8595L34.9728 28.0775C35.1128 28.5388 35.4547 28.9321 35.9231 29.1708C36.3915 29.4096 36.9481 29.4742 37.4704 29.3505C37.9928 29.2268 38.4381 28.925 38.7085 28.5113C38.9788 28.0977 39.052 27.6061 38.9119 27.1448L37.3277 21.9268C37.0475 21.004 37.194 20.0207 37.7347 19.1932C38.2755 18.3657 39.1664 17.7619 40.2113 17.5144C41.2562 17.267 42.3697 17.3963 43.3067 17.8739C44.2437 18.3515 44.9275 19.1382 45.2076 20.061L46.3016 23.6703Z" fill="#E40808"/>
</g>
<defs>
<clipPath id="clip0_3_15">
<rect width="56" height="52" fill="white"/>
</clipPath>
</defs>
</svg>
