<svg width="68" height="59" viewBox="0 0 68 59" fill="none" xmlns="http://www.w3.org/2000/svg">
<path d="M34 59C27.9832 58.9853 22.079 57.8858 16.8862 55.813C11.6934 53.7402 7.39657 50.7678 4.43137 47.1972C1.46616 43.6267 -0.061966 39.5848 0.00192427 35.4816C0.0658145 31.3783 1.71945 27.3595 4.79517 23.8327C4.49134 22.6438 4.33689 21.4393 4.33351 20.2325C4.33351 14.8665 7.45908 9.72028 13.0226 5.92596C18.5862 2.13163 26.132 0 34 0C41.868 0 49.4138 2.13163 54.9774 5.92596C60.5409 9.72028 63.6665 14.8665 63.6665 20.2325C63.6631 21.4393 63.5087 22.6438 63.2048 23.8327C66.2805 27.3595 67.9342 31.3783 67.9981 35.4816C68.062 39.5848 66.5338 43.6267 63.5686 47.1972C60.6034 50.7678 56.3066 53.7402 51.1138 55.813C45.921 57.8858 40.0168 58.9853 34 59ZM34 2.73782C30.186 2.74003 26.4207 3.32178 22.9777 4.44078C19.5346 5.55978 16.5005 7.18792 14.0957 9.20686C11.6909 11.2258 9.97596 13.5848 9.07546 16.1124C8.17496 18.64 8.11156 21.2726 8.88986 23.819C8.99334 24.1688 8.89251 24.5322 8.60886 24.832C5.70869 27.936 4.08514 31.5145 3.90813 35.1931C3.73111 38.8717 5.00714 42.5151 7.60266 45.7421C10.1982 48.969 14.0178 51.6609 18.6617 53.5359C23.3057 55.411 28.6032 56.4003 34 56.4003C39.3968 56.4003 44.6943 55.411 49.3383 53.5359C53.9822 51.6609 57.8018 48.969 60.3973 45.7421C62.9929 42.5151 64.2689 38.8717 64.0919 35.1931C63.9149 31.5145 62.2913 27.936 59.3911 24.832C59.1075 24.5322 59.0067 24.1688 59.1101 23.819C59.8884 21.2726 59.825 18.64 58.9245 16.1124C58.024 13.5848 56.3091 11.2258 53.9043 9.20686C51.4995 7.18792 48.4654 5.55978 45.0223 4.44078C41.5793 3.32178 37.814 2.74003 34 2.73782ZM55.6176 21.0128C55.1132 21.0153 54.6259 20.8882 54.2527 20.6568C48.7212 17.2063 41.4963 15.2928 34 15.2928C26.5037 15.2928 19.2788 17.2063 13.7473 20.6568C13.4552 20.8422 13.0887 20.964 12.6946 21.0066C12.3005 21.0492 11.8967 21.0108 11.5348 20.8962C11.1729 20.7816 10.8693 20.5961 10.6628 20.3632C10.4562 20.1304 10.3561 19.8609 10.3752 19.5891C10.6266 15.4308 13.2255 11.4999 17.6286 8.61828C22.0316 5.73669 27.8976 4.12765 34 4.12765C40.1024 4.12765 45.9684 5.73669 50.3715 8.61828C54.7745 11.4999 57.3734 15.4308 57.6248 19.5891C57.6415 19.8601 57.5398 20.1285 57.3325 20.36C57.1253 20.5915 56.8218 20.7759 56.4606 20.8896C56.196 20.9718 55.9084 21.0138 55.6176 21.0128ZM34 12.5529C40.6994 12.5464 47.2513 13.8945 52.8276 16.4269C51.6283 13.6557 49.1466 11.2234 45.7532 9.49342C42.3597 7.76346 38.2367 6.82866 34 6.82866C29.7633 6.82866 25.6403 7.76346 22.2468 9.49342C18.8534 11.2234 16.3717 13.6557 15.1724 16.4269C20.7487 13.8945 27.3006 12.5464 34 12.5529Z" fill="black"/>
</svg>
